<svg width="16" height="16" viewBox="0 0 16 16" fill="none" xmlns="http://www.w3.org/2000/svg">
<path d="M8.52298 9.30769C10.4274 9.30769 11.9713 7.74642 11.9713 5.82051C11.9713 3.89459 10.4274 2.33333 8.52298 2.33333C6.61855 2.33333 5.07471 3.89459 5.07471 5.82051C5.07471 7.74642 6.61855 9.30769 8.52298 9.30769Z" fill="#84FFFB"/>
<path d="M5.07463 13.6667C7.69322 13.6667 9.81601 11.5199 9.81601 8.87179C9.81601 6.22366 7.69322 4.07692 5.07463 4.07692C2.45604 4.07692 0.333252 6.22366 0.333252 8.87179C0.333252 11.5199 2.45604 13.6667 5.07463 13.6667Z" fill="#FFF068"/>
<path d="M10.6782 13.6667C13.2967 13.6667 15.4195 11.5199 15.4195 8.87179C15.4195 6.22366 13.2967 4.07692 10.6782 4.07692C8.05956 4.07692 5.93677 6.22366 5.93677 8.87179C5.93677 11.5199 8.05956 13.6667 10.6782 13.6667Z" fill="#FD7898"/>
</svg>
