<svg width="18" height="20" viewBox="0 0 18 20" fill="none" xmlns="http://www.w3.org/2000/svg">
<g clip-path="url(#clip0_131_1247)">
<path d="M5 5V3.75C5 1.67891 6.64453 0 8.75 0C10.8203 0 12.5 1.67891 12.5 3.75V5H15.625C16.6602 5 17.5 5.83984 17.5 6.875V16.25C17.5 18.3203 15.8203 20 13.75 20H3.75C1.67891 20 0 18.3203 0 16.25V6.875C0 5.83984 0.839453 5 1.875 5H5ZM6.25 5H11.25V3.75C11.25 2.36914 10.1289 1.25 8.75 1.25C7.37109 1.25 6.25 2.36914 6.25 3.75V5ZM1.875 6.25C1.52969 6.25 1.25 6.53125 1.25 6.875V16.25C1.25 17.6289 2.36914 18.75 3.75 18.75H13.75C15.1289 18.75 16.25 17.6289 16.25 16.25V6.875C16.25 6.53125 15.9688 6.25 15.625 6.25H12.5V9.375C12.5 9.71875 12.2188 10 11.875 10C11.5312 10 11.25 9.71875 11.25 9.375V6.25H6.25V9.375C6.25 9.71875 5.96875 10 5.625 10C5.28125 10 5 9.71875 5 9.375V6.25H1.875Z" fill="#323031"/>
</g>
<defs>
<clipPath id="clip0_131_1247">
<rect width="17.5" height="20" fill="white"/>
</clipPath>
</defs>
</svg>
