<svg width="20" height="20" viewBox="0 0 20 20" fill="none" xmlns="http://www.w3.org/2000/svg">
<g clip-path="url(#clip0_131_1253)">
<path d="M19.8164 18.9336L14.2891 13.4062C15.5078 11.9844 16.2149 10.1445 16.2149 8.125C16.2149 3.63672 12.577 0 8.08985 0C3.60274 0 0 3.63789 0 8.125C0 12.6121 3.63751 16.25 8.08985 16.25C10.1086 16.25 11.9512 15.5094 13.3711 14.291L18.8984 19.8184C19.0547 19.9375 19.2149 20 19.375 20C19.5352 20 19.6949 19.939 19.8168 19.8169C20.0625 19.5742 20.0625 19.1758 19.8164 18.9336ZM8.12501 15C4.30079 15 1.25001 11.9141 1.25001 8.125C1.25001 4.33594 4.30079 1.25 8.12501 1.25C11.9492 1.25 15 4.30078 15 8.125C15 11.9492 11.9141 15 8.12501 15Z" fill="#323031"/>
</g>
<defs>
<clipPath id="clip0_131_1253">
<rect width="20" height="20" fill="white"/>
</clipPath>
</defs>
</svg>
