<svg width="150" height="34" viewBox="0 0 150 34" fill="none" xmlns="http://www.w3.org/2000/svg">
<g clip-path="url(#clip0_131_1207)">
<path d="M104.741 20.9231C110.455 20.9231 115.086 16.2393 115.086 10.4615C115.086 4.68378 110.455 -1.52588e-05 104.741 -1.52588e-05C99.028 -1.52588e-05 94.3965 4.68378 94.3965 10.4615C94.3965 16.2393 99.028 20.9231 104.741 20.9231Z" fill="#84FFFB"/>
<path d="M94.3965 34C102.252 34 108.621 27.5598 108.621 19.6154C108.621 11.671 102.252 5.23076 94.3965 5.23076C86.5407 5.23076 80.1724 11.671 80.1724 19.6154C80.1724 27.5598 86.5407 34 94.3965 34Z" fill="#FFF068"/>
<path d="M111.207 34C119.063 34 125.431 27.5598 125.431 19.6154C125.431 11.671 119.063 5.23076 111.207 5.23076C103.351 5.23076 96.9827 11.671 96.9827 19.6154C96.9827 27.5598 103.351 34 111.207 34Z" fill="#FD7898"/>
<path d="M4.18228 33.5255C2.73734 33.5255 1.63859 33.1362 0.886032 32.3575C0.488802 31.9046 0.183996 31.3735 -0.0101499 30.7959C-0.204296 30.2184 -0.28379 29.6063 -0.243879 28.9962V4.44014C-0.283667 3.83008 -0.204114 3.21799 -0.00997461 2.64044C0.184165 2.0629 0.488905 1.53177 0.886032 1.07878C1.63895 0.300505 2.7377 -0.0888182 4.18228 -0.0891866H15.4322C17.4714 -0.144553 19.5008 0.220173 21.4023 0.983753C22.9144 1.59102 24.221 2.64371 25.1602 4.01141C26.0348 5.36373 26.4856 6.96171 26.4514 8.58825C26.4975 10.4194 25.9185 12.2088 24.8161 13.6424C23.6757 15.0738 22.1128 16.0788 20.367 16.5032V15.7408C22.3375 16.0208 24.1537 16.9968 25.508 18.5033C26.7554 20.0318 27.4049 21.9876 27.3286 23.9862C27.3286 26.9424 26.3068 29.271 24.2632 30.9719C22.2196 32.6728 19.4299 33.524 15.8944 33.5255H4.18228ZM7.86851 13.2612H13.9107C15.4472 13.2612 16.5768 12.9752 17.2994 12.4032C17.6702 12.088 17.9622 11.6851 18.1508 11.2287C18.3393 10.7722 18.4189 10.2755 18.3828 9.78052C18.42 9.28922 18.3407 8.79596 18.1519 8.34348C17.9631 7.891 17.6705 7.49294 17.2994 7.18381C16.5768 6.62801 15.4472 6.34992 13.9107 6.34955H7.87065L7.86851 13.2612ZM7.86851 27.0884H14.7404C16.3075 27.0884 17.4524 26.7785 18.175 26.1586C18.5494 25.8099 18.8417 25.3772 19.0296 24.8937C19.2174 24.4102 19.2959 23.8887 19.259 23.3691C19.2975 22.8528 19.2197 22.3344 19.0316 21.8546C18.8435 21.3747 18.5503 20.9466 18.175 20.6038C17.4527 20.0005 16.3079 19.6987 14.7404 19.6983H7.87065L7.86851 27.0884Z" fill="#323031"/>
<path d="M36.7831 34.0498C35.1852 34.0838 33.6008 33.7414 32.1497 33.0487C30.8844 32.4445 29.8011 31.4971 29.0148 30.3072C28.2561 29.1296 27.862 27.7409 27.8849 26.326C27.8038 24.8547 28.265 23.4064 29.1756 22.2729C30.0361 21.2876 31.4192 20.5803 33.325 20.1508C35.8328 19.667 38.3821 19.4513 40.9325 19.5071H43.4686V23.5127H40.9325C39.9353 23.4938 38.9387 23.5817 37.959 23.7751C37.3222 23.8781 36.7245 24.1581 36.2297 24.5851C36.0471 24.7663 35.9036 24.9852 35.8083 25.2275C35.7131 25.4699 35.6682 25.7303 35.6767 25.9917C35.6682 26.3329 35.7319 26.6718 35.8633 26.9848C35.9947 27.2979 36.1907 27.5774 36.4375 27.8039C37.0543 28.3193 37.8367 28.5746 38.6278 28.5188C39.3444 28.5325 40.0519 28.3518 40.6798 27.9945C41.2769 27.647 41.7771 27.146 42.1319 26.5398C42.5098 25.885 42.7015 25.1331 42.6848 24.3707V18.8397C42.6848 17.6957 42.3999 16.8854 41.8301 16.4088C41.2602 15.9322 40.2843 15.6927 38.9024 15.6905C38.0667 15.7008 37.2335 15.7886 36.4129 15.953C35.3584 16.1674 34.3245 16.4786 33.3234 16.8828C32.6561 17.1923 31.9035 17.2431 31.203 17.0259C30.6356 16.8179 30.1551 16.4135 29.8428 15.8811C29.523 15.3536 29.3625 14.7394 29.3818 14.117C29.4021 13.4648 29.6109 12.8338 29.9812 12.3054C30.4284 11.6853 31.0473 11.2205 31.7559 10.9728C33.0736 10.4444 34.4413 10.0607 35.8365 9.82805C36.973 9.64617 38.121 9.55052 39.2711 9.54186C41.4057 9.46968 43.532 9.85122 45.5184 10.6629C47.0881 11.3416 48.388 12.552 49.2047 14.0955C50.0853 15.9383 50.506 17.9797 50.4286 20.0337V29.6636C50.5071 30.8166 50.1613 31.9577 49.4606 32.8581C49.0953 33.2389 48.6552 33.534 48.17 33.7235C47.6847 33.913 47.1658 33.9925 46.6483 33.9565C46.1205 33.9941 45.5908 33.9158 45.0942 33.7269C44.5976 33.538 44.1452 33.2427 43.7667 32.8603C43.0512 31.967 42.696 30.8229 42.7751 29.6658V28.426L43.0519 29.0934C42.9236 30.0478 42.5582 30.9514 41.9914 31.7161C41.417 32.4642 40.6726 33.0537 39.8245 33.4321C38.8645 33.8584 37.8278 34.069 36.7831 34.0498Z" fill="#323031"/>
<path d="M59.969 34.0498C57.0182 34.0498 54.8437 33.2314 53.4454 31.5946C52.0471 29.9577 51.3478 27.4862 51.3475 24.1801V3.77274C51.3081 3.19394 51.3817 2.61286 51.5639 2.06407C51.7461 1.51528 52.0331 1.00998 52.4079 0.578236C52.8102 0.195985 53.2831 -0.0982102 53.7982 -0.286674C54.3132 -0.475137 54.8598 -0.553976 55.405 -0.518458C55.9608 -0.55489 56.5181 -0.476698 57.0445 -0.288425C57.5708 -0.100153 58.0557 0.194442 58.471 0.578236C58.8523 1.00639 59.1451 1.51057 59.3314 2.05988C59.5177 2.60918 59.5936 3.19204 59.5544 3.77274V23.8939C59.4801 24.8065 59.7165 25.7172 60.2228 26.4685C60.4324 26.7306 60.6971 26.9398 60.9967 27.0803C61.2962 27.2207 61.6228 27.2887 61.9515 27.279C62.1763 27.2781 62.4003 27.254 62.6204 27.2072C62.8512 27.1597 63.1048 27.1201 63.3812 27.0884C63.6126 27.0752 63.8433 27.1257 64.0498 27.2347C64.2562 27.3436 64.4311 27.5073 64.5565 27.7089C64.8176 28.1221 64.9483 28.9643 64.9486 30.2354C65.0114 31.1211 64.7841 32.0029 64.3033 32.7388C63.7945 33.339 63.0876 33.7215 62.3207 33.8117C62.0742 33.8426 61.7208 33.8902 61.2602 33.9542C60.8324 34.0157 60.401 34.0477 59.969 34.0498Z" fill="#323031"/>
<path d="M73.8746 34.0498C70.9234 34.0498 68.7487 33.2314 67.3505 31.5946C65.9522 29.9577 65.253 27.4862 65.253 24.1801V3.77274C65.2136 3.19397 65.2871 2.61291 65.4692 2.06412C65.6512 1.51532 65.9382 1.01001 66.313 0.578236C66.7153 0.195985 67.1882 -0.0982102 67.7032 -0.286674C68.2182 -0.475137 68.7648 -0.553976 69.31 -0.518458C69.8659 -0.55489 70.4232 -0.476698 70.9495 -0.288425C71.4758 -0.100153 71.9607 0.194442 72.376 0.578236C72.7574 1.00639 73.0502 1.51057 73.2365 2.05988C73.4228 2.60918 73.4986 3.19204 73.4595 3.77274V23.8939C73.3851 24.8065 73.6215 25.7172 74.1278 26.4685C74.3375 26.7307 74.6023 26.9399 74.9019 27.0803C75.2016 27.2208 75.5283 27.2887 75.8571 27.279C76.0816 27.2781 76.3055 27.254 76.5255 27.2072C76.7559 27.1597 77.0093 27.1201 77.2857 27.0884C77.5171 27.0754 77.7477 27.1259 77.9542 27.2349C78.1606 27.3439 78.3355 27.5074 78.461 27.7089C78.7217 28.1221 78.8522 28.9643 78.8526 30.2354C78.9154 31.1211 78.6881 32.0029 78.2072 32.7388C77.6983 33.3388 76.9915 33.7214 76.2247 33.8117C75.9782 33.8426 75.6247 33.8902 75.1642 33.9542C74.7369 34.0157 74.306 34.0476 73.8746 34.0498Z" fill="#323031"/>
<path d="M131.018 33.9564C130.473 33.9919 129.926 33.9131 129.411 33.7247C128.896 33.5363 128.423 33.2423 128.021 32.8603C127.646 32.4286 127.359 31.9233 127.177 31.3745C126.995 30.8257 126.921 30.2446 126.961 29.6658V13.8811C126.923 13.3113 126.996 12.7396 127.174 12.199C127.352 11.6584 127.632 11.1597 127.998 10.7319C128.395 10.3486 128.864 10.0535 129.375 9.8649C129.887 9.67628 130.43 9.5981 130.972 9.63521C131.511 9.59662 132.051 9.67419 132.559 9.86298C133.067 10.0518 133.531 10.3477 133.923 10.7319C134.648 11.6032 135.012 12.7343 134.938 13.8811V16.122L134.43 14.1673C135.125 12.7203 136.225 11.5238 137.588 10.7341C139.021 9.92246 140.634 9.5115 142.268 9.54184C143.825 9.47792 145.37 9.84853 146.74 10.6148C147.955 11.3887 148.881 12.565 149.368 13.9524C150.003 15.778 150.3 17.7109 150.244 19.6502V29.6636C150.284 30.2423 150.21 30.8234 150.028 31.3721C149.846 31.9209 149.559 32.4262 149.184 32.8581C148.318 33.5679 147.246 33.9542 146.141 33.9542C145.036 33.9542 143.964 33.5679 143.098 32.8581C142.723 32.4264 142.436 31.9211 142.254 31.3723C142.072 30.8235 141.998 30.2424 142.038 29.6636V19.9839C142.038 18.5537 141.8 17.5366 141.323 16.9325C141.065 16.6241 140.741 16.3819 140.377 16.2248C140.013 16.0676 139.619 15.9999 139.225 16.027C138.678 16.0015 138.132 16.0968 137.623 16.3063C137.115 16.5159 136.655 16.835 136.274 17.2425C135.506 18.1393 135.109 19.3118 135.168 20.5082V29.6636C135.168 32.5255 133.784 33.9564 131.018 33.9564Z" fill="#323031"/>
</g>
<defs>
<clipPath id="clip0_131_1207">
<rect width="150" height="34" fill="white"/>
</clipPath>
</defs>
</svg>
